<?xml version="1.0" encoding="UTF-8" standalone="no"?>
<!DOCTYPE svg PUBLIC "-//W3C//DTD SVG 1.1//EN" "http://www.w3.org/Graphics/SVG/1.1/DTD/svg11.dtd"><svg width="100%"
    height="100%" viewBox="0 0 11655 11655" version="1.1" xmlns="http://www.w3.org/2000/svg"
    xmlns:xlink="http://www.w3.org/1999/xlink" xml:space="preserve" xmlns:serif="http://www.serif.com/"
    style="fill-rule:evenodd;clip-rule:evenodd;stroke-linecap:round;stroke-linejoin:round;stroke-miterlimit:1.5;">
    <path id="circle"
        d="M9223.45,7497.8l1965.92,595.407c-884.855,2087.64 -2954.95,3553.77 -5365.03,3553.77c-3214.08,0 -5823.5,-2607.5 -5823.5,-5819.21c0,-3211.71 2609.42,-5819.21 5823.5,-5819.21c3214.08,-0 5823.5,2607.5 5823.5,5819.21c0,313.852 -24.919,621.935 -72.885,922.379l-1943.59,-588.642l1.13,-3.702l325.658,-1089.54l-2145.8,-3084.98l-3812.2,-329.197l-2408.95,2784.84l453.409,3658.55l3352.86,1842.14l3499.38,-1371.89l326.609,-1069.93Z"
        style="fill:#d97706;stroke:#000;stroke-width:4.17px;" />
    <path id="inner-5" serif:id="inner 5"
        d="M2824.75,7441.57l196.489,-3792.74c1.382,-26.683 19.791,-49.441 45.596,-56.368l3676.46,-986.909c25.717,-6.904 52.96,3.479 67.559,25.748l2086.76,3183.03c14.719,22.452 13.221,51.847 -3.704,72.686l-2405.72,2962.15c-16.826,20.718 -45.071,28.26 -69.986,18.688l-3553.99,-1365.53c-24.919,-9.574 -40.847,-34.095 -39.466,-60.754Z"
        style="fill:#d97706;" />
</svg>
